# xmcd CD database file
#
# Track frame offsets:
#	150
#	14830
#	28140
#	44245
#	54600
#	68390
#	81005
#	94512
#	106772
#	119100
#	134165
#	148992
#	166272
#	182990
#	196502
#
# Disc length: 2846 seconds
#
# Revision: 4
# Processed by: cddbd v1.5.2PL0 Copyright (c) Steve Scherf et al.
# Submitted via: CDex 1.70beta3
#
DISCID=dd0b1c0f
DTITLE=オムニバス - 廃盤ベストコレクション（8CD)　disc01
DYEAR=1987
DGENRE=JPop
TTITLE0=弘田三枝子 - 人形の家
TTITLE1=森山加代子 - 白い蝶のサンバ
TTITLE2=小川ローザ - 風が落とした涙
TTITLE3=青い三角定規 - 太陽がくれた季節
TTITLE4=やまがたすみこ - 風に吹かれて行こう
TTITLE5=ズー・ニー・ヴー - ひとりの悲しみ
TTITLE6=内藤洋子 - 白馬のルンナ
TTITLE7=エミー・ジャクソン - 涙の太陽
TTITLE8=ベッツィ and クリス - 白い色は恋人の色
TTITLE9=ヒデとロザンナ - 愛は傷つきやすく
TTITLE10=堺正章 - さらば恋人
TTITLE11=兼田みえ子 - 私もあなたと泣いていい?
TTITLE12=新谷のり子 - フランシーヌの場合
TTITLE13=いしだあゆみ - あなたならどうする
TTITLE14=ザ・ダーツ - ケメ子の歌
EXTD=YEAR: 1987
EXTT0=
EXTT1=
EXTT2=
EXTT3=
EXTT4=
EXTT5=
EXTT6=
EXTT7=
EXTT8=
EXTT9=
EXTT10=
EXTT11=
EXTT12=
EXTT13=
EXTT14=
PLAYORDER=
